<?xml version="1.0" encoding="UTF-8" standalone="no"?>
<!-- Created with Inkscape (http://www.inkscape.org/) -->

<svg
   xmlns:dc="http://purl.org/dc/elements/1.1/"
   xmlns:cc="http://creativecommons.org/ns#"
   xmlns:rdf="http://www.w3.org/1999/02/22-rdf-syntax-ns#"
   xmlns:svg="http://www.w3.org/2000/svg"
   xmlns="http://www.w3.org/2000/svg"
   xmlns:sodipodi="http://sodipodi.sourceforge.net/DTD/sodipodi-0.dtd"
   xmlns:inkscape="http://www.inkscape.org/namespaces/inkscape"
   id="svg9288"
   version="1.1"
   inkscape:version="0.91 r13725"
   xml:space="preserve"
   width="1600"
   height="1000"
   viewBox="0 0 1600 1000"
   sodipodi:docname="0 Vector.svg"><metadata
     id="metadata9294"><rdf:RDF><cc:Work
         rdf:about=""><dc:format>image/svg+xml</dc:format><dc:type
           rdf:resource="http://purl.org/dc/dcmitype/StillImage" /><dc:title></dc:title></cc:Work></rdf:RDF></metadata><defs
     id="defs9292"><clipPath
       clipPathUnits="userSpaceOnUse"
       id="clipPath9302"><path
         d="M 0,800 1280,800 1280,0 0,0 0,800 Z"
         id="path9304"
         inkscape:connector-curvature="0" /></clipPath><clipPath
       clipPathUnits="userSpaceOnUse"
       id="clipPath9408"><path
         d="M 0,800 1280,800 1280,0 0,0 0,800 Z"
         id="path9410"
         inkscape:connector-curvature="0" /></clipPath></defs><sodipodi:namedview
     pagecolor="#ffffff"
     bordercolor="#666666"
     borderopacity="1"
     objecttolerance="10"
     gridtolerance="10"
     guidetolerance="10"
     inkscape:pageopacity="0"
     inkscape:pageshadow="2"
     inkscape:window-width="1600"
     inkscape:window-height="851"
     id="namedview9290"
     showgrid="false"
     inkscape:zoom="0.50587646"
     inkscape:cx="800"
     inkscape:cy="579.07069"
     inkscape:window-x="0"
     inkscape:window-y="25"
     inkscape:window-maximized="1"
     inkscape:current-layer="g9300" /><g
     id="g9296"
     inkscape:groupmode="layer"
     inkscape:label="0 Vector"
     transform="matrix(1.25,0,0,-1.25,0,1000)"><g
       id="g9298"><g
         id="g9300"
         clip-path="url(#clipPath9302)"><g
           id="g9306"
           transform="translate(180.9824,436.4204)"
           inkscape:export-xdpi="415"
           inkscape:export-ydpi="415"><path
             d="m 0,0 c 0,-4.463 1.212,-7.948 3.64,-10.453 2.425,-2.506 5.595,-3.758 9.51,-3.758 3.053,0 5.616,0.881 7.69,2.643 2.073,1.761 3.112,4.09 3.112,6.988 0,1.644 -0.334,3.033 -0.998,4.169 -0.666,1.134 -1.567,2.132 -2.701,2.995 -1.135,0.86 -2.485,1.624 -4.05,2.29 -1.567,0.664 -3.249,1.351 -5.049,2.055 -3.758,1.409 -7.339,2.819 -10.743,4.228 -3.405,1.409 -6.361,3.113 -8.865,5.109 -2.506,1.997 -4.502,4.404 -5.988,7.223 -1.488,2.819 -2.23,6.302 -2.23,10.452 0,3.759 0.801,7.085 2.406,9.983 1.604,2.896 3.737,5.324 6.399,7.282 2.66,1.956 5.733,3.424 9.217,4.404 3.482,0.978 7.104,1.468 10.86,1.468 4.853,0 9.118,-0.705 12.798,-2.114 3.679,-1.409 6.731,-3.329 9.159,-5.755 2.425,-2.428 4.245,-5.208 5.459,-8.338 1.213,-3.133 1.82,-6.46 1.82,-9.983 l -19.021,0 c 0,3.679 -0.88,6.577 -2.641,8.691 -1.762,2.114 -4.286,3.171 -7.574,3.171 -2.74,0 -5.088,-0.705 -7.044,-2.114 C 3.208,39.227 2.23,37.112 2.23,34.294 c 0,-2.742 1.076,-4.915 3.229,-6.519 2.152,-1.605 4.99,-3.035 8.513,-4.286 3.364,-1.175 6.769,-2.448 10.215,-3.817 3.443,-1.371 6.534,-3.054 9.275,-5.05 2.739,-1.997 4.99,-4.425 6.751,-7.282 1.761,-2.859 2.642,-6.323 2.642,-10.394 0,-4.228 -0.763,-7.986 -2.29,-11.274 -1.526,-3.289 -3.66,-6.048 -6.398,-8.28 -2.741,-2.231 -5.988,-3.916 -9.746,-5.05 -3.757,-1.134 -7.906,-1.703 -12.445,-1.703 -4.385,0 -8.474,0.646 -12.27,1.938 -3.797,1.292 -7.085,3.189 -9.862,5.696 -2.78,2.505 -4.952,5.579 -6.516,9.219 -1.567,3.641 -2.349,7.81 -2.349,12.508 L 0,0 Z"
             style="fill:#000000;fill-opacity:1;fill-rule:nonzero;stroke:none"
             id="path9308"
             inkscape:connector-curvature="0" /></g><g
           id="g9310"
           transform="translate(236.8687,491.3843)"
           inkscape:export-xdpi="415"
           inkscape:export-ydpi="415"><path
             d="m 0,0 17.377,0 0,-33.824 c 1.564,2.975 3.913,5.324 7.044,7.047 3.13,1.721 6.887,2.584 11.272,2.584 3.678,0 6.769,-0.569 9.275,-1.703 2.505,-1.136 4.539,-2.722 6.106,-4.757 1.8,-2.193 3.012,-4.738 3.639,-7.634 0.626,-2.898 0.94,-6.382 0.94,-10.452 l 0,-33.472 -17.377,0 0,29.009 c 0,4.07 -0.725,7.379 -2.172,9.924 -1.45,2.543 -4.051,3.817 -7.808,3.817 -3.68,0 -6.419,-1.292 -8.219,-3.876 -1.801,-2.583 -2.7,-6.068 -2.7,-10.453 l 0,-28.421 L 0,-82.211 0,0 Z"
             style="fill:#000000;fill-opacity:1;fill-rule:nonzero;stroke:none"
             id="path9312"
             inkscape:connector-curvature="0" /></g><g
           id="g9314"
           transform="translate(335.0225,423.0317)"
           inkscape:export-xdpi="415"
           inkscape:export-ydpi="415"><path
             d="m 0,0 c 2.035,0 3.893,0.371 5.577,1.116 1.682,0.743 3.111,1.78 4.285,3.112 1.175,1.331 2.094,2.857 2.76,4.581 0.664,1.721 0.998,3.6 0.998,5.637 0,1.956 -0.334,3.817 -0.998,5.578 -0.666,1.762 -1.585,3.288 -2.76,4.58 -1.174,1.292 -2.603,2.329 -4.285,3.113 -1.684,0.782 -3.542,1.174 -5.577,1.174 -2.037,0 -3.875,-0.392 -5.519,-1.174 -1.643,-0.784 -3.052,-1.821 -4.226,-3.113 -1.174,-1.292 -2.075,-2.818 -2.701,-4.58 -0.627,-1.761 -0.939,-3.622 -0.939,-5.578 0,-2.037 0.312,-3.916 0.939,-5.637 0.626,-1.724 1.527,-3.25 2.701,-4.581 C -8.571,2.896 -7.162,1.859 -5.519,1.116 -3.875,0.371 -2.037,0 0,0 m 0,-15.385 c -4.854,0 -9.217,0.803 -13.091,2.407 -3.875,1.604 -7.162,3.759 -9.863,6.46 -2.7,2.701 -4.775,5.852 -6.223,9.454 -1.449,3.601 -2.172,7.438 -2.172,11.51 0,4.07 0.723,7.907 2.172,11.509 1.448,3.601 3.523,6.753 6.223,9.455 2.701,2.701 5.988,4.853 9.863,6.459 3.874,1.604 8.237,2.407 13.091,2.407 4.931,0 9.334,-0.803 13.208,-2.407 3.875,-1.606 7.163,-3.758 9.863,-6.459 2.7,-2.702 4.774,-5.854 6.223,-9.455 1.448,-3.602 2.172,-7.439 2.172,-11.509 0,-4.072 -0.724,-7.909 -2.172,-11.51 -1.449,-3.602 -3.523,-6.753 -6.223,-9.454 -2.7,-2.701 -5.988,-4.856 -9.863,-6.46 C 9.334,-14.582 4.931,-15.385 0,-15.385"
             style="fill:#000000;fill-opacity:1;fill-rule:nonzero;stroke:none"
             id="path9316"
             inkscape:connector-curvature="0" /></g><g
           id="g9318"
           transform="translate(413.2178,437.4775)"
           inkscape:export-xdpi="415"
           inkscape:export-ydpi="415"><path
             d="m 0,0 21.956,-28.304 -21.369,0 -17.377,23.723 0,-23.723 -17.963,0 0,82.211 17.963,0 0,-49.562 17.495,23.959 21.368,0 L 0,0 Z"
             style="fill:#000000;fill-opacity:1;fill-rule:nonzero;stroke:none"
             id="path9320"
             inkscape:connector-curvature="0" /></g><g
           id="g9322"
           transform="translate(478.8491,437.4775)"
           inkscape:export-xdpi="415"
           inkscape:export-ydpi="415"><path
             d="m 0,0 21.956,-28.304 -21.369,0 -17.377,23.723 0,-23.723 -17.963,0 0,82.211 17.963,0 0,-49.562 17.495,23.959 21.368,0 L 0,0 Z"
             style="fill:#000000;fill-opacity:1;fill-rule:nonzero;stroke:none"
             id="path9324"
             inkscape:connector-curvature="0" /></g><path
           d="m 509.727,465.782 17.964,0 0,-56.608 -17.964,0 0,56.608 z m -2.583,18.791 c 0,3.209 1.095,5.91 3.287,8.103 2.191,2.191 4.931,3.289 8.219,3.289 1.643,0 3.17,-0.294 4.579,-0.881 1.409,-0.587 2.642,-1.391 3.698,-2.408 1.057,-1.018 1.879,-2.231 2.466,-3.64 0.587,-1.41 0.88,-2.898 0.88,-4.463 0,-1.568 -0.293,-3.035 -0.88,-4.405 -0.587,-1.37 -1.409,-2.584 -2.466,-3.64 -1.056,-1.057 -2.289,-1.88 -3.698,-2.466 -1.409,-0.588 -2.936,-0.881 -4.579,-0.881 -1.644,0 -3.152,0.293 -4.521,0.881 -1.37,0.586 -2.583,1.409 -3.639,2.466 -1.057,1.056 -1.879,2.27 -2.466,3.64 -0.587,1.37 -0.88,2.837 -0.88,4.405"
           style="fill:#000000;fill-opacity:1;fill-rule:nonzero;stroke:none"
           id="path9326"
           inkscape:connector-curvature="0"
           inkscape:export-xdpi="415"
           inkscape:export-ydpi="415" /><g
           id="g9328"
           transform="translate(543.54,465.7817)"
           inkscape:export-xdpi="415"
           inkscape:export-ydpi="415"><path
             d="m 0,0 17.964,0 0,-8.221 c 1.565,3.053 3.933,5.42 7.103,7.105 3.17,1.683 6.986,2.525 11.448,2.525 3.678,0 6.848,-0.569 9.51,-1.703 2.66,-1.136 4.773,-2.721 6.34,-4.756 1.8,-2.193 2.994,-4.718 3.581,-7.575 0.587,-2.859 0.881,-6.324 0.881,-10.395 l 0,-33.588 -17.964,0 0,29.008 c 0,4.071 -0.725,7.379 -2.172,9.924 -1.449,2.544 -4.051,3.817 -7.808,3.817 -3.68,0 -6.419,-1.291 -8.219,-3.875 -1.801,-2.584 -2.7,-6.069 -2.7,-10.453 l 0,-28.421 L 0,-56.608 0,0 Z"
             style="fill:#000000;fill-opacity:1;fill-rule:nonzero;stroke:none"
             id="path9330"
             inkscape:connector-curvature="0" /></g><g
           id="g9332"
           transform="translate(690.3027,452.6279)"
           inkscape:export-xdpi="415"
           inkscape:export-ydpi="415"><path
             d="m 0,0 42.619,0 0,-14.211 -8.453,0 c -0.861,-4.698 -2.348,-8.966 -4.461,-12.801 -2.113,-3.838 -4.893,-7.126 -8.336,-9.866 -3.445,-2.741 -7.496,-4.873 -12.152,-6.4 -4.658,-1.527 -9.922,-2.29 -15.793,-2.29 -6.889,0 -13.014,1.174 -18.373,3.523 -5.363,2.349 -9.864,5.5 -13.504,9.454 -3.639,3.953 -6.418,8.533 -8.336,13.741 -1.918,5.206 -2.876,10.706 -2.876,16.501 0,5.637 0.977,11.058 2.935,16.266 1.957,5.206 4.794,9.807 8.513,13.8 3.717,3.993 8.237,7.182 13.561,9.572 5.322,2.387 11.347,3.582 18.08,3.582 5.402,0 10.351,-0.764 14.853,-2.291 4.5,-1.526 8.395,-3.602 11.682,-6.224 3.289,-2.625 5.91,-5.678 7.867,-9.161 1.955,-3.485 3.129,-7.184 3.522,-11.098 l -20.311,0 c -0.314,1.644 -0.939,3.209 -1.879,4.697 -0.939,1.487 -2.172,2.799 -3.699,3.935 -1.525,1.134 -3.307,2.035 -5.342,2.701 -2.037,0.664 -4.306,0.998 -6.81,0.998 -3.914,0 -7.319,-0.745 -10.215,-2.231 -2.897,-1.489 -5.342,-3.485 -7.338,-5.99 -1.996,-2.507 -3.484,-5.384 -4.461,-8.632 -0.98,-3.25 -1.469,-6.597 -1.469,-10.041 0,-3.681 0.51,-7.146 1.528,-10.394 1.015,-3.25 2.562,-6.107 4.636,-8.574 2.075,-2.466 4.698,-4.424 7.867,-5.872 3.17,-1.45 6.87,-2.173 11.096,-2.173 2.895,0 5.479,0.411 7.748,1.233 2.27,0.823 4.229,1.938 5.871,3.348 1.645,1.409 2.975,3.033 3.993,4.874 1.015,1.838 1.681,3.776 1.996,5.813 L 0,-14.211 0,0 Z"
             style="fill:#000000;fill-opacity:1;fill-rule:nonzero;stroke:none"
             id="path9334"
             inkscape:connector-curvature="0" /></g><g
           id="g9336"
           transform="translate(783.7607,449.4565)"
           inkscape:export-xdpi="415"
           inkscape:export-ydpi="415"><path
             d="m 0,0 c -1.253,0.312 -2.31,0.529 -3.17,0.646 -0.862,0.118 -1.919,0.176 -3.17,0.176 -4.931,0 -8.885,-1.449 -11.858,-4.345 -2.976,-2.898 -4.462,-7.792 -4.462,-14.681 l 0,-22.079 -17.964,0 0,56.608 17.964,0 0,-9.161 c 1.33,2.661 3.541,5.01 6.634,7.047 3.09,2.035 6.633,3.054 10.626,3.054 2.113,0 3.913,-0.314 5.4,-0.94 L 0,0 Z"
             style="fill:#000000;fill-opacity:1;fill-rule:nonzero;stroke:none"
             id="path9338"
             inkscape:connector-curvature="0" /></g><g
           id="g9340"
           transform="translate(817.457,423.0317)"
           inkscape:export-xdpi="415"
           inkscape:export-ydpi="415"><path
             d="m 0,0 c 2.035,0 3.894,0.371 5.577,1.116 1.683,0.743 3.111,1.78 4.286,3.112 1.174,1.331 2.093,2.857 2.759,4.581 0.664,1.721 0.998,3.6 0.998,5.637 0,1.956 -0.334,3.817 -0.998,5.578 -0.666,1.762 -1.585,3.288 -2.759,4.58 C 8.688,25.896 7.26,26.933 5.577,27.717 3.894,28.499 2.035,28.891 0,28.891 c -2.036,0 -3.874,-0.392 -5.518,-1.174 -1.643,-0.784 -3.052,-1.821 -4.227,-3.113 -1.174,-1.292 -2.074,-2.818 -2.7,-4.58 -0.627,-1.761 -0.94,-3.622 -0.94,-5.578 0,-2.037 0.313,-3.916 0.94,-5.637 0.626,-1.724 1.526,-3.25 2.7,-4.581 C -8.57,2.896 -7.161,1.859 -5.518,1.116 -3.874,0.371 -2.036,0 0,0 m 0,-15.385 c -4.854,0 -9.217,0.803 -13.091,2.407 -3.875,1.604 -7.162,3.759 -9.862,6.46 -2.701,2.701 -4.776,5.852 -6.223,9.454 -1.45,3.601 -2.173,7.438 -2.173,11.51 0,4.07 0.723,7.907 2.173,11.509 1.447,3.601 3.522,6.753 6.223,9.455 2.7,2.701 5.987,4.853 9.862,6.459 3.874,1.604 8.237,2.407 13.091,2.407 4.932,0 9.335,-0.803 13.209,-2.407 3.875,-1.606 7.162,-3.758 9.862,-6.459 2.701,-2.702 4.775,-5.854 6.224,-9.455 1.447,-3.602 2.172,-7.439 2.172,-11.509 0,-4.072 -0.725,-7.909 -2.172,-11.51 -1.449,-3.602 -3.523,-6.753 -6.224,-9.454 -2.7,-2.701 -5.987,-4.856 -9.862,-6.46 C 9.335,-14.582 4.932,-15.385 0,-15.385"
             style="fill:#000000;fill-opacity:1;fill-rule:nonzero;stroke:none"
             id="path9342"
             inkscape:connector-curvature="0" /></g><g
           id="g9344"
           transform="translate(916.9043,465.7817)"
           inkscape:export-xdpi="415"
           inkscape:export-ydpi="415"><path
             d="m 0,0 0,-56.608 -17.964,0 0,8.103 c -1.566,-2.976 -3.933,-5.305 -7.103,-6.988 -3.17,-1.682 -6.986,-2.525 -11.448,-2.525 -3.68,0 -6.85,0.569 -9.51,1.703 -2.662,1.134 -4.776,2.72 -6.34,4.757 -1.802,2.191 -2.976,4.716 -3.523,7.575 -0.549,2.857 -0.821,6.322 -0.821,10.394 l 0,33.589 17.846,0 0,-29.009 c 0,-4.072 0.722,-7.381 2.173,-9.924 1.447,-2.545 4.049,-3.817 7.807,-3.817 3.757,0 6.516,1.292 8.278,3.875 1.76,2.584 2.641,6.067 2.641,10.453 L -17.964,0 0,0 Z"
             style="fill:#000000;fill-opacity:1;fill-rule:nonzero;stroke:none"
             id="path9346"
             inkscape:connector-curvature="0" /></g><g
           id="g9348"
           transform="translate(964.3379,451.9229)"
           inkscape:export-xdpi="415"
           inkscape:export-ydpi="415"><path
             d="m 0,0 c -2.036,0 -3.895,-0.393 -5.576,-1.174 -1.685,-0.784 -3.112,-1.821 -4.286,-3.113 -1.174,-1.292 -2.095,-2.818 -2.759,-4.58 -0.666,-1.761 -0.998,-3.622 -0.998,-5.578 0,-1.958 0.332,-3.817 0.998,-5.579 0.664,-1.762 1.585,-3.288 2.759,-4.58 1.174,-1.292 2.601,-2.331 4.286,-3.113 1.681,-0.783 3.54,-1.174 5.576,-1.174 1.956,0 3.758,0.391 5.401,1.174 1.644,0.782 3.053,1.821 4.227,3.113 1.175,1.292 2.094,2.818 2.76,4.58 0.664,1.762 0.998,3.621 0.998,5.579 0,1.956 -0.334,3.817 -0.998,5.578 -0.666,1.762 -1.585,3.288 -2.76,4.58 C 8.454,-2.995 7.045,-1.958 5.401,-1.174 3.758,-0.393 1.956,0 0,0 m -13.619,5.755 c 0.704,1.251 1.643,2.466 2.817,3.641 1.175,1.174 2.543,2.191 4.11,3.053 1.565,0.861 3.229,1.546 4.99,2.055 1.762,0.509 3.581,0.764 5.46,0.764 4.068,0 7.807,-0.764 11.213,-2.29 3.404,-1.527 6.319,-3.603 8.747,-6.225 2.425,-2.624 4.303,-5.754 5.636,-9.395 1.33,-3.641 1.996,-7.575 1.996,-11.803 0,-4.228 -0.666,-8.163 -1.996,-11.804 -1.333,-3.64 -3.211,-6.773 -5.636,-9.395 -2.428,-2.624 -5.343,-4.698 -8.747,-6.225 -3.406,-1.527 -7.145,-2.29 -11.213,-2.29 -1.879,0 -3.698,0.255 -5.46,0.763 -1.761,0.511 -3.425,1.193 -4.99,2.056 -1.567,0.861 -2.935,1.859 -4.11,2.995 -1.174,1.134 -2.113,2.367 -2.817,3.699 l 0,-33.707 -17.964,0 0,82.212 17.964,0 0,-8.104 z"
             style="fill:#000000;fill-opacity:1;fill-rule:nonzero;stroke:none"
             id="path9350"
             inkscape:connector-curvature="0" /></g><g
           id="g9352"
           transform="translate(164.1504,370.8818)"
           inkscape:export-xdpi="415"
           inkscape:export-ydpi="415"><path
             d="m 0,0 33.633,0 0,-6.155 -13.339,0 0,-43.392 13.339,0 0,-6.117 -33.633,0 0,6.117 13.033,0 0,43.392 L 0,-6.155 0,0 Z"
             style="fill:#000000;fill-opacity:1;fill-rule:nonzero;stroke:none"
             id="path9354"
             inkscape:connector-curvature="0" /></g><g
           id="g9356"
           transform="translate(217.8579,356.583)"
           inkscape:export-xdpi="415"
           inkscape:export-ydpi="415"><path
             d="m 0,0 0.497,-6.116 c 1.503,2.14 3.35,3.816 5.542,5.027 2.191,1.21 4.637,1.828 7.338,1.854 2.165,0 4.134,-0.306 5.905,-0.917 1.771,-0.613 3.28,-1.568 4.529,-2.868 1.248,-1.299 2.21,-2.951 2.886,-4.951 0.675,-2.001 1.012,-4.378 1.012,-7.13 l 0,-26.264 -7.07,0 0,26.111 c 0,1.835 -0.204,3.39 -0.612,4.664 -0.408,1.275 -1.012,2.307 -1.815,3.097 -0.803,0.79 -1.784,1.363 -2.943,1.721 -1.16,0.356 -2.491,0.535 -3.994,0.535 -2.37,0 -4.453,-0.593 -6.249,-1.778 -1.797,-1.185 -3.23,-2.747 -4.3,-4.683 l 0,-29.667 -7.07,0 L -6.344,0 0,0 Z"
             style="fill:#000000;fill-opacity:1;fill-rule:nonzero;stroke:none"
             id="path9358"
             inkscape:connector-curvature="0" /></g><g
           id="g9360"
           transform="translate(275.6177,366.5996)"
           inkscape:export-xdpi="415"
           inkscape:export-ydpi="415"><path
             d="m 0,0 0,-10.017 15.747,0 0,-5.466 -15.747,0 0,-22.48 c 0,-1.605 0.204,-2.932 0.611,-3.975 0.408,-1.046 0.969,-1.88 1.682,-2.505 0.713,-0.624 1.535,-1.065 2.465,-1.319 0.93,-0.255 1.917,-0.383 2.962,-0.383 0.765,0 1.554,0.045 2.37,0.134 0.815,0.089 1.611,0.198 2.389,0.325 0.776,0.127 1.503,0.261 2.178,0.402 0.675,0.139 1.229,0.261 1.663,0.363 l 0.993,-5.008 c -0.586,-0.357 -1.299,-0.669 -2.14,-0.937 -0.84,-0.268 -1.758,-0.496 -2.752,-0.688 -0.993,-0.191 -2.045,-0.338 -3.153,-0.439 -1.108,-0.102 -2.21,-0.153 -3.306,-0.153 -1.835,0 -3.548,0.261 -5.14,0.784 -1.593,0.521 -2.976,1.35 -4.147,2.484 -1.173,1.134 -2.096,2.6 -2.771,4.397 -0.675,1.796 -1.013,3.969 -1.013,6.518 l 0,22.48 -10.854,0 0,5.466 10.854,0 L -7.109,0 0,0 Z"
             style="fill:#000000;fill-opacity:1;fill-rule:nonzero;stroke:none"
             id="path9362"
             inkscape:connector-curvature="0" /></g><g
           id="g9364"
           transform="translate(323.5923,351.5371)"
           inkscape:export-xdpi="415"
           inkscape:export-ydpi="415"><path
             d="m 0,0 c -1.427,0 -2.777,-0.262 -4.051,-0.784 -1.275,-0.523 -2.421,-1.287 -3.44,-2.294 -1.019,-1.007 -1.879,-2.243 -2.58,-3.708 -0.701,-1.466 -1.191,-3.154 -1.471,-5.066 l 22.244,0 0,0.536 c -0.077,1.376 -0.338,2.739 -0.784,4.09 -0.446,1.351 -1.102,2.562 -1.968,3.632 -0.867,1.071 -1.956,1.937 -3.268,2.6 C 3.369,-0.332 1.809,0 0,0 m 0.917,-37.084 c -2.904,0 -5.574,0.497 -8.007,1.491 -2.433,0.994 -4.516,2.383 -6.249,4.167 -1.733,1.783 -3.083,3.9 -4.051,6.347 -0.968,2.446 -1.452,5.109 -1.452,7.989 l 0,1.607 c 0,3.337 0.535,6.327 1.605,8.964 1.07,2.638 2.49,4.869 4.261,6.691 1.771,1.822 3.784,3.217 6.039,4.186 2.255,0.968 4.567,1.453 6.937,1.453 2.981,0 5.586,-0.516 7.816,-1.548 2.229,-1.033 4.083,-2.46 5.561,-4.283 1.477,-1.822 2.58,-3.969 3.306,-6.441 0.726,-2.473 1.089,-5.148 1.089,-8.028 l 0,-3.174 -29.543,0 c 0.076,-1.886 0.439,-3.657 1.089,-5.314 0.649,-1.657 1.541,-3.103 2.675,-4.339 1.133,-1.237 2.49,-2.211 4.07,-2.924 1.58,-0.714 3.326,-1.072 5.236,-1.072 2.523,0 4.765,0.51 6.727,1.53 1.962,1.019 3.593,2.371 4.892,4.053 l 4.319,-3.365 c -0.688,-1.045 -1.548,-2.045 -2.58,-3.001 -1.032,-0.956 -2.223,-1.803 -3.573,-2.542 -1.351,-0.74 -2.88,-1.333 -4.586,-1.778 C 4.79,-36.86 2.93,-37.084 0.917,-37.084"
             style="fill:#000000;fill-opacity:1;fill-rule:nonzero;stroke:none"
             id="path9366"
             inkscape:connector-curvature="0" /></g><g
           id="g9368"
           transform="translate(380.7017,357.3477)"
           inkscape:export-xdpi="415"
           inkscape:export-ydpi="415"><path
             d="m 0,0 c 0.662,0 1.35,-0.019 2.064,-0.058 0.713,-0.038 1.395,-0.101 2.044,-0.19 0.65,-0.09 1.249,-0.198 1.797,-0.325 0.548,-0.128 1,-0.268 1.357,-0.421 L 6.306,-7.913 c -1.376,0.306 -2.681,0.528 -3.917,0.669 -1.237,0.14 -2.529,0.21 -3.88,0.21 -3.312,0 -5.994,-0.752 -8.045,-2.256 -2.051,-1.504 -3.561,-3.606 -4.529,-6.308 l 0,-26.532 -7.109,0 0,41.365 6.727,0 0.344,-6.575 c 1.682,2.268 3.701,4.059 6.058,5.371 C -5.689,-0.656 -3.007,0 0,0"
             style="fill:#000000;fill-opacity:1;fill-rule:nonzero;stroke:none"
             id="path9370"
             inkscape:connector-curvature="0" /></g><g
           id="g9372"
           transform="translate(407.312,356.583)"
           inkscape:export-xdpi="415"
           inkscape:export-ydpi="415"><path
             d="m 0,0 0.497,-6.116 c 1.503,2.14 3.35,3.816 5.542,5.027 2.191,1.21 4.637,1.828 7.338,1.854 2.165,0 4.134,-0.306 5.905,-0.917 1.771,-0.613 3.28,-1.568 4.529,-2.868 1.248,-1.299 2.21,-2.951 2.886,-4.951 0.675,-2.001 1.012,-4.378 1.012,-7.13 l 0,-26.264 -7.07,0 0,26.111 c 0,1.835 -0.204,3.39 -0.612,4.664 -0.408,1.275 -1.012,2.307 -1.815,3.097 -0.803,0.79 -1.784,1.363 -2.943,1.721 -1.16,0.356 -2.491,0.535 -3.994,0.535 -2.37,0 -4.453,-0.593 -6.249,-1.778 -1.797,-1.185 -3.23,-2.747 -4.3,-4.683 l 0,-29.667 -7.07,0 L -6.344,0 0,0 Z"
             style="fill:#000000;fill-opacity:1;fill-rule:nonzero;stroke:none"
             id="path9374"
             inkscape:connector-curvature="0" /></g><g
           id="g9376"
           transform="translate(463.0073,320.6084)"
           inkscape:export-xdpi="415"
           inkscape:export-ydpi="415"><path
             d="m 0,0 c 1.376,0 2.662,0.178 3.86,0.535 1.198,0.357 2.287,0.828 3.268,1.414 0.98,0.587 1.828,1.256 2.541,2.008 0.714,0.751 1.274,1.535 1.682,2.351 l 0,8.373 -6.574,0 c -4.127,0 -7.338,-0.613 -9.631,-1.835 -2.293,-1.224 -3.44,-3.149 -3.44,-5.774 0,-1.019 0.172,-1.963 0.516,-2.829 C -7.434,3.377 -6.918,2.631 -6.23,2.007 -5.542,1.382 -4.676,0.892 -3.631,0.535 -2.586,0.178 -1.376,0 0,0 m 12.498,-5.391 c -0.281,0.536 -0.503,1.204 -0.669,2.007 -0.166,0.803 -0.287,1.638 -0.363,2.504 C 10.752,-1.593 9.956,-2.269 9.077,-2.905 8.198,-3.543 7.229,-4.104 6.172,-4.588 5.115,-5.072 3.987,-5.454 2.79,-5.734 1.592,-6.015 0.318,-6.155 -1.032,-6.155 c -2.192,0 -4.173,0.319 -5.943,0.956 -1.772,0.637 -3.275,1.497 -4.51,2.58 -1.236,1.083 -2.192,2.37 -2.867,3.861 -0.675,1.491 -1.012,3.103 -1.012,4.836 0,2.269 0.452,4.257 1.356,5.965 0.904,1.707 2.185,3.128 3.841,4.263 1.657,1.133 3.65,1.981 5.982,2.542 2.331,0.56 4.936,0.84 7.816,0.84 l 7.72,0 0,3.25 c 0,1.249 -0.229,2.371 -0.688,3.365 -0.458,0.994 -1.108,1.841 -1.949,2.542 -0.841,0.701 -1.867,1.242 -3.077,1.625 -1.21,0.382 -2.567,0.573 -4.07,0.573 -1.401,0 -2.656,-0.179 -3.765,-0.535 C -3.306,30.15 -4.242,29.68 -5.007,29.094 -5.771,28.507 -6.364,27.812 -6.784,27.01 -7.205,26.207 -7.415,25.372 -7.415,24.506 l -7.108,0 c 0.024,1.503 0.413,2.981 1.165,4.434 0.752,1.454 1.835,2.759 3.249,3.919 1.414,1.16 3.134,2.096 5.159,2.81 2.026,0.713 4.325,1.07 6.899,1.07 2.344,0 4.523,-0.286 6.536,-0.86 2.012,-0.573 3.751,-1.44 5.217,-2.6 1.465,-1.16 2.618,-2.605 3.459,-4.339 0.84,-1.733 1.261,-3.759 1.261,-6.079 l 0,-19.229 c 0,-1.376 0.127,-2.836 0.382,-4.378 0.255,-1.542 0.612,-2.886 1.07,-4.033 l 0,-0.612 -7.376,0 z"
             style="fill:#000000;fill-opacity:1;fill-rule:nonzero;stroke:none"
             id="path9378"
             inkscape:connector-curvature="0" /></g><g
           id="g9380"
           transform="translate(512.4351,366.5996)"
           inkscape:export-xdpi="415"
           inkscape:export-ydpi="415"><path
             d="m 0,0 0,-10.017 15.747,0 0,-5.466 -15.747,0 0,-22.48 c 0,-1.605 0.204,-2.932 0.611,-3.975 0.408,-1.046 0.969,-1.88 1.682,-2.505 0.713,-0.624 1.535,-1.065 2.465,-1.319 0.93,-0.255 1.917,-0.383 2.962,-0.383 0.765,0 1.554,0.045 2.37,0.134 0.815,0.089 1.611,0.198 2.389,0.325 0.776,0.127 1.503,0.261 2.178,0.402 0.675,0.139 1.229,0.261 1.663,0.363 l 0.993,-5.008 c -0.586,-0.357 -1.299,-0.669 -2.14,-0.937 -0.84,-0.268 -1.758,-0.496 -2.752,-0.688 -0.993,-0.191 -2.045,-0.338 -3.153,-0.439 -1.108,-0.102 -2.21,-0.153 -3.306,-0.153 -1.835,0 -3.548,0.261 -5.14,0.784 -1.593,0.521 -2.976,1.35 -4.147,2.484 -1.173,1.134 -2.096,2.6 -2.771,4.397 -0.675,1.796 -1.013,3.969 -1.013,6.518 l 0,22.48 -10.854,0 0,5.466 10.854,0 L -7.109,0 0,0 Z"
             style="fill:#000000;fill-opacity:1;fill-rule:nonzero;stroke:none"
             id="path9382"
             inkscape:connector-curvature="0" /></g><g
           id="g9384"
           transform="translate(557.314,367.4404)"
           inkscape:export-xdpi="415"
           inkscape:export-ydpi="415"><path
             d="m 0,0 c 0,1.172 0.35,2.16 1.051,2.963 0.7,0.803 1.764,1.204 3.191,1.204 1.402,0 2.459,-0.401 3.173,-1.204 C 8.127,2.16 8.485,1.172 8.485,0 8.485,-1.146 8.127,-2.103 7.415,-2.867 6.701,-3.632 5.644,-4.014 4.242,-4.014 2.815,-4.014 1.751,-3.632 1.051,-2.867 0.35,-2.103 0,-1.146 0,0 m -13.147,-10.857 21.135,0 0,-35.248 13.491,0 0,-6.118 -34.626,0 0,6.118 14.064,0 0,29.092 -14.064,0 0,6.156 z"
             style="fill:#000000;fill-opacity:1;fill-rule:nonzero;stroke:none"
             id="path9386"
             inkscape:connector-curvature="0" /></g><g
           id="g9388"
           transform="translate(595.5044,335.4414)"
           inkscape:export-xdpi="415"
           inkscape:export-ydpi="415"><path
             d="m 0,0 c 0,-2.039 0.242,-3.982 0.726,-5.83 0.484,-1.848 1.217,-3.473 2.198,-4.874 0.98,-1.402 2.21,-2.511 3.688,-3.326 1.477,-0.817 3.198,-1.224 5.16,-1.224 1.936,0 3.637,0.407 5.102,1.224 1.465,0.815 2.688,1.924 3.669,3.326 0.981,1.401 1.713,3.026 2.198,4.874 0.484,1.848 0.726,3.791 0.726,5.83 l 0,0.842 c 0,2.012 -0.248,3.943 -0.745,5.792 -0.497,1.846 -1.237,3.471 -2.217,4.874 -0.981,1.401 -2.204,2.516 -3.669,3.345 -1.465,0.828 -3.179,1.243 -5.141,1.243 -1.962,0 -3.669,-0.415 -5.121,-1.243 C 5.122,14.024 3.904,12.909 2.924,11.508 1.943,10.105 1.21,8.48 0.726,6.634 0.242,4.785 0,2.854 0,0.842 L 0,0 Z m -7.071,0.842 c 0,2.981 0.433,5.753 1.3,8.314 0.866,2.562 2.108,4.785 3.726,6.672 1.618,1.886 3.587,3.37 5.905,4.453 2.319,1.083 4.931,1.625 7.835,1.625 2.93,0 5.561,-0.542 7.893,-1.625 2.331,-1.083 4.306,-2.567 5.924,-4.453 1.617,-1.887 2.86,-4.11 3.726,-6.672 0.866,-2.561 1.3,-5.333 1.3,-8.314 l 0,-0.842 c 0,-2.981 -0.434,-5.747 -1.3,-8.296 -0.866,-2.549 -2.109,-4.766 -3.726,-6.652 -1.618,-1.886 -3.587,-3.364 -5.905,-4.435 -2.319,-1.07 -4.931,-1.605 -7.835,-1.605 -2.931,0 -5.561,0.535 -7.893,1.605 -2.331,1.071 -4.306,2.549 -5.924,4.435 -1.618,1.886 -2.86,4.103 -3.726,6.652 -0.867,2.549 -1.3,5.315 -1.3,8.296 l 0,0.842 z"
             style="fill:#000000;fill-opacity:1;fill-rule:nonzero;stroke:none"
             id="path9390"
             inkscape:connector-curvature="0" /></g><g
           id="g9392"
           transform="translate(644.1299,356.583)"
           inkscape:export-xdpi="415"
           inkscape:export-ydpi="415"><path
             d="m 0,0 0.496,-6.116 c 1.504,2.14 3.351,3.816 5.542,5.027 2.191,1.21 4.638,1.828 7.339,1.854 2.165,0 4.133,-0.306 5.904,-0.917 1.771,-0.613 3.281,-1.568 4.53,-2.868 1.248,-1.299 2.21,-2.951 2.885,-4.951 0.675,-2.001 1.013,-4.378 1.013,-7.13 l 0,-26.264 -7.07,0 0,26.111 c 0,1.835 -0.205,3.39 -0.613,4.664 -0.407,1.275 -1.012,2.307 -1.815,3.097 -0.802,0.79 -1.783,1.363 -2.942,1.721 -1.161,0.356 -2.492,0.535 -3.995,0.535 -2.369,0 -4.452,-0.593 -6.249,-1.778 C 3.229,-8.2 1.796,-9.762 0.726,-11.698 l 0,-29.667 -7.071,0 L -6.345,0 0,0 Z"
             style="fill:#000000;fill-opacity:1;fill-rule:nonzero;stroke:none"
             id="path9394"
             inkscape:connector-curvature="0" /></g><g
           id="g9396"
           transform="translate(699.8242,320.6084)"
           inkscape:export-xdpi="415"
           inkscape:export-ydpi="415"><path
             d="m 0,0 c 1.376,0 2.663,0.178 3.86,0.535 1.198,0.357 2.287,0.828 3.269,1.414 0.98,0.587 1.827,1.256 2.541,2.008 0.713,0.751 1.274,1.535 1.682,2.351 l 0,8.373 -6.574,0 c -4.128,0 -7.339,-0.613 -9.632,-1.835 -2.292,-1.224 -3.439,-3.149 -3.439,-5.774 0,-1.019 0.172,-1.963 0.516,-2.829 0.343,-0.866 0.86,-1.612 1.548,-2.236 C -5.541,1.382 -4.676,0.892 -3.631,0.535 -2.586,0.178 -1.375,0 0,0 m 12.498,-5.391 c -0.28,0.536 -0.503,1.204 -0.669,2.007 -0.166,0.803 -0.286,1.638 -0.362,2.504 C 10.753,-1.593 9.957,-2.269 9.078,-2.905 8.198,-3.543 7.229,-4.104 6.173,-4.588 5.115,-5.072 3.988,-5.454 2.79,-5.734 1.593,-6.015 0.318,-6.155 -1.031,-6.155 c -2.192,0 -4.173,0.319 -5.944,0.956 -1.771,0.637 -3.274,1.497 -4.509,2.58 -1.237,1.083 -2.192,2.37 -2.867,3.861 -0.675,1.491 -1.013,3.103 -1.013,4.836 0,2.269 0.452,4.257 1.357,5.965 0.904,1.707 2.185,3.128 3.841,4.263 1.656,1.133 3.65,1.981 5.981,2.542 2.331,0.56 4.937,0.84 7.816,0.84 l 7.721,0 0,3.25 c 0,1.249 -0.23,2.371 -0.688,3.365 -0.459,0.994 -1.108,1.841 -1.949,2.542 -0.841,0.701 -1.867,1.242 -3.077,1.625 -1.21,0.382 -2.568,0.573 -4.071,0.573 -1.401,0 -2.656,-0.179 -3.764,-0.535 C -3.306,30.15 -4.242,29.68 -5.006,29.094 -5.771,28.507 -6.363,27.812 -6.783,27.01 -7.204,26.207 -7.414,25.372 -7.414,24.506 l -7.109,0 c 0.025,1.503 0.414,2.981 1.166,4.434 0.751,1.454 1.835,2.759 3.249,3.919 1.414,1.16 3.133,2.096 5.159,2.81 2.025,0.713 4.325,1.07 6.898,1.07 2.345,0 4.523,-0.286 6.536,-0.86 2.013,-0.573 3.751,-1.44 5.217,-2.6 1.465,-1.16 2.618,-2.605 3.459,-4.339 0.841,-1.733 1.262,-3.759 1.262,-6.079 l 0,-19.229 c 0,-1.376 0.127,-2.836 0.382,-4.378 0.254,-1.542 0.611,-2.886 1.07,-4.033 l 0,-0.612 -7.377,0 z"
             style="fill:#000000;fill-opacity:1;fill-rule:nonzero;stroke:none"
             id="path9398"
             inkscape:connector-curvature="0" /></g><g
           id="g9400"
           transform="translate(733.6201,373.9395)"
           inkscape:export-xdpi="415"
           inkscape:export-ydpi="415"><path
             d="m 0,0 21.136,0 0,-52.604 13.491,0 0,-6.118 -34.627,0 0,6.118 14.064,0 0,46.45 L 0,-6.154 0,0 Z"
             style="fill:#000000;fill-opacity:1;fill-rule:nonzero;stroke:none"
             id="path9402"
             inkscape:connector-curvature="0" /></g></g></g><g
       id="g9404"><g
         id="g9406"
         clip-path="url(#clipPath9408)"><g
           id="g9412"
           transform="translate(1062.9531,513.647)"><path
             d="M 0,0 C -0.044,0.866 0.081,1.75 -0.857,1.976 -1.721,2.185 -1.863,1.335 -2.201,0.791 -2.503,0.307 -2.923,-0.105 -3.212,-0.595 c -0.972,-1.647 -1.652,-3.384 -1.289,-5.348 0.107,-0.581 0.409,-1.133 0.999,-1.336 0.734,-0.253 1.032,0.383 1.312,0.859 1.186,2.026 1.861,4.231 2.19,6.42 m -45.949,67.865 c -0.84,-0.326 -3.06,0.897 -2.356,-1.529 0.343,-1.182 1.124,-3.007 2.808,-3.157 1.764,-0.157 2.856,1.479 4.186,2.37 0.684,0.458 0.235,1.542 -0.168,2.287 -0.476,0.878 -1.19,0.728 -1.908,0.358 -0.759,-0.391 -1.541,-0.571 -2.562,-0.329 m 36.496,-86.512 -13.5,0 c -0.687,0.918 -1.779,0.707 -2.694,0.914 -19.541,4.412 -32.585,16.045 -38.934,35.065 -0.982,2.943 -1.591,6.011 -2.372,9.021 l 0,12 c 0.907,0.527 0.569,1.494 0.711,2.243 4.183,22.117 19.552,37.617 41.592,41.945 0.741,0.145 1.715,-0.117 2.197,0.812 l 12,0 c 0.325,-0.697 0.996,-0.455 1.529,-0.54 7.556,-1.218 14.672,-3.576 20.985,-8.037 0.01,-2.689 -0.06,-2.741 -2.329,-1.686 -0.753,0.351 -1.491,0.74 -2.263,1.041 -0.417,0.163 -1.15,0.415 -1.034,-0.416 0.335,-2.413 -1.331,-1.598 -2.398,-1.486 -4.48,0.465 -7.195,-2.678 -9.723,-5.349 -2.136,-2.257 -2.78,-2.752 -4.607,-0.079 -0.32,0.469 -0.866,0.958 -0.478,1.549 0.325,0.494 0.914,0.107 1.387,0.082 1.077,-0.058 2.313,-0.296 2.781,1.014 0.441,1.231 -0.467,2.13 -1.343,2.703 -2.331,1.524 -4.942,2.551 -7.292,4.099 -1.266,0.833 -2.944,0.279 -4.046,-1.001 -0.539,-0.626 -1.016,-1.318 -1.441,-2.028 -2.29,-3.822 -3.978,-8.044 -7.888,-10.732 -1.275,-0.876 -1.17,-4.252 -0.232,-5.571 0.512,-0.72 1.102,-0.677 1.719,-0.276 1.7,1.103 2.571,0.501 2.992,-1.324 0.157,-0.681 0.362,-1.751 1.4,-1.17 1.25,0.7 2.63,1.91 2.062,3.36 -1.534,3.921 1.022,6.004 3.229,8.332 l -0.036,0.04 c 0.228,-0.781 -0.135,-1.464 -0.362,-2.17 -1.334,-4.158 -0.98,-4.67 3.413,-4.969 0.095,-0.006 0.175,-0.218 0.328,-0.423 -0.762,-0.492 -1.53,-0.968 -2.278,-1.473 -0.843,-0.57 -1.487,-1.311 -1.929,-2.24 -1.476,-3.111 -4.899,-3.598 -7.202,-1 -0.584,0.659 -1.31,1.251 -1.541,0.023 -0.554,-2.941 -2.927,-4.173 -4.919,-5.799 0.321,3.201 -2.486,5.495 -2.509,8.635 -0.004,0.684 -0.924,0.828 -1.645,0.613 -0.665,-0.199 -1.506,-0.564 -1.288,-1.262 0.493,-1.584 -0.077,-2.279 -1.447,-3.021 -1.458,-0.789 -0.224,-2.274 -0.278,-3.415 -0.037,-0.796 1.004,-0.358 1.633,-0.238 1.94,0.37 1.05,-0.919 0.977,-1.722 -0.218,-0.387 -0.008,-0.354 0.258,-0.263 1.429,0.345 2.809,0.984 4.339,0.713 -0.464,-0.841 -1.26,-1.308 -2.036,-1.79 -0.549,-0.342 -0.816,-0.598 -0.461,-1.369 1.232,-2.676 1.178,-2.887 -1.814,-3.362 -2.76,-0.438 -1.934,-2.612 -2.063,-4.095 -0.14,-1.607 1.345,-1.857 2.681,-1.843 1.686,0.018 2.795,0.694 3.25,2.468 0.466,1.813 1.568,2.634 3.649,3.068 3.133,0.653 4.294,-1.363 5.912,-3.04 0.344,-0.356 0.498,-1.274 1.284,-0.703 0.715,0.52 0.814,1.329 0.253,1.975 -0.594,0.682 -1.413,1.163 -2.061,1.804 -0.499,0.495 -1.451,1.12 -0.818,1.816 0.708,0.78 1.216,-0.319 1.777,-0.697 2.107,-1.419 2.292,-3.939 3.407,-5.926 0.321,-0.571 0.575,-1.334 1.427,-1.108 0.874,0.233 1.015,1.011 0.99,1.802 -0.021,0.685 -0.688,1.666 0.38,1.924 1.997,0.48 2.383,2.072 2.994,3.626 0.265,0.67 0.862,2.018 1.674,0.807 1.525,-2.271 2.083,-0.693 2.867,0.712 0.722,-1.043 1.141,-2.042 2.047,-2.668 0.474,-0.328 0.87,-0.889 0.458,-1.505 -0.378,-0.564 -1.099,-0.639 -1.57,-0.323 -2.304,1.548 -4.224,0.618 -6.176,-0.728 -0.556,-0.383 -1.227,-0.549 -1.148,-1.404 0.078,-0.858 0.578,-1.376 1.376,-1.571 0.725,-0.176 1.472,-0.273 2.212,-0.383 0.917,-0.135 2.163,0.257 2.079,-1.385 -0.074,-1.413 -0.613,-2.365 -2.174,-2.549 -1.783,-0.21 -3.464,0.044 -5.137,0.69 -0.898,0.348 -2.25,1.033 -2.783,0.128 -1.141,-1.935 -2.173,-0.756 -3.247,-0.217 -1.16,0.581 -2.956,0.467 -2.81,2.567 0.113,1.605 -0.965,1.718 -2.172,1.483 -2.202,-0.429 -4.383,-1.039 -6.605,-1.271 -1.517,-0.159 -2.582,-0.854 -3.776,-1.653 -1.387,-0.926 -0.671,-2.747 -1.929,-3.637 -2.226,-1.578 -2.655,-3.84 -3.017,-6.455 -0.357,-2.588 -0.231,-4.348 1.409,-6.675 2.216,-3.142 4.538,-3.788 7.856,-2.832 2.25,0.648 4.434,0.406 6.581,-0.523 0.869,-0.376 1.491,-0.824 1.159,-1.852 -0.561,-1.736 0.149,-3.133 1.22,-4.351 1.507,-1.714 1.683,-3.56 0.807,-5.562 -0.574,-1.312 -0.346,-2.487 0.048,-3.84 0.916,-3.141 2.777,-6.052 2.451,-9.519 -0.121,-1.286 0.774,-1.424 1.782,-1.505 4.692,-0.379 10.579,4.994 10.711,9.878 0.02,0.761 0.211,1.303 0.846,1.656 2.491,1.381 2.52,3.761 1.849,5.903 -0.899,2.871 0.182,4.517 2.331,6.137 2.446,1.843 3.776,4.53 4.946,7.235 -0.659,0.533 -1.168,0.293 -1.606,0.149 -2.804,-0.923 -4.615,0.151 -5.876,2.68 -1.075,2.158 -2.331,4.226 -3.443,6.367 -0.292,0.564 -0.804,1.219 -0.135,2.222 2.137,-2.857 3.5,-5.893 5.052,-8.804 0.794,-1.489 1.784,-1.815 3.261,-1.163 2.293,1.012 4.504,2.177 6.481,3.722 1.688,1.32 1.496,2.362 -0.523,3.234 -0.531,0.23 -1.091,0.478 -1.656,0.536 -2.378,0.242 -2.806,2.017 -3.576,4.064 2.212,-0.691 3.63,-1.898 5.223,-2.774 0.955,-0.523 1.885,-0.991 3.025,-1.048 4.273,-0.216 6.317,-1.778 7.716,-5.67 0.477,-1.329 1.053,-2.627 1.66,-3.903 0.3,-0.632 0.481,-1.579 1.463,-1.437 0.858,0.124 1.171,0.969 1.318,1.668 0.582,2.758 2.62,4.351 4.598,6.019 1.593,1.345 2.887,0.885 4.02,-0.614 1.468,-1.943 3.197,-3.755 2.867,-6.527 -0.058,-0.488 0.427,-1.039 0.662,-1.561 C 31.32,13.65 31.211,12.897 30.914,12.227 24.746,-1.703 14.461,-11.181 0.038,-16.081 c -3.097,-1.052 -6.324,-1.721 -9.491,-2.566"
             style="fill:#1e93cf;fill-opacity:1;fill-rule:nonzero;stroke:none"
             id="path9414"
             inkscape:connector-curvature="0" /></g><g
           id="g9416"
           transform="translate(1045.5098,579.4849)"><path
             d="m 0,0 c -2.207,-2.328 -4.763,-4.411 -3.229,-8.332 0.568,-1.45 -0.812,-2.66 -2.062,-3.36 -1.038,-0.581 -1.242,0.489 -1.399,1.17 -0.421,1.825 -1.292,2.427 -2.993,1.324 -0.617,-0.401 -1.207,-0.444 -1.718,0.276 -0.939,1.319 -1.043,4.695 0.231,5.571 3.91,2.688 5.599,6.91 7.889,10.732 0.425,0.71 0.901,1.402 1.44,2.028 1.103,1.28 2.78,1.834 4.046,1.001 C 4.556,8.862 7.166,7.835 9.497,6.311 10.373,5.738 11.281,4.839 10.841,3.608 10.372,2.298 9.137,2.536 8.06,2.594 7.586,2.619 6.997,3.006 6.673,2.512 6.284,1.921 6.83,1.432 7.15,0.963 8.978,-1.71 9.621,-1.215 11.758,1.042 14.285,3.713 17,6.856 21.48,6.391 c 1.067,-0.112 2.733,-0.927 2.398,1.486 -0.115,0.831 0.617,0.58 1.034,0.416 0.773,-0.301 1.511,-0.69 2.264,-1.041 2.268,-1.055 2.339,-1.003 2.328,1.686 11.905,-7.724 18.985,-18.711 22.023,-32.459 0.257,-1.163 0.012,-2.488 0.963,-3.464 l 0,-13.5 c -0.921,-0.586 -0.686,-1.619 -0.886,-2.453 -0.695,-2.906 -1.32,-5.826 -2.643,-8.535 -0.234,0.522 -0.72,1.074 -0.661,1.561 0.329,2.772 -1.4,4.584 -2.867,6.527 -1.133,1.499 -2.428,1.959 -4.021,0.614 -1.977,-1.668 -4.016,-3.261 -4.598,-6.019 -0.147,-0.699 -0.46,-1.543 -1.318,-1.668 -0.981,-0.142 -1.163,0.805 -1.463,1.437 -0.606,1.276 -1.182,2.574 -1.66,3.903 -1.398,3.892 -3.442,5.454 -7.716,5.67 -1.139,0.057 -2.07,0.525 -3.024,1.049 -1.594,0.875 -3.012,2.082 -5.224,2.774 0.771,-2.048 1.198,-3.823 3.576,-4.065 0.566,-0.058 1.125,-0.306 1.657,-0.536 2.018,-0.872 2.211,-1.914 0.522,-3.233 -1.977,-1.545 -4.187,-2.711 -6.48,-3.723 -1.478,-0.652 -2.467,-0.326 -3.261,1.163 -1.553,2.912 -2.915,5.947 -5.053,8.804 -0.669,-1.003 -0.157,-1.658 0.136,-2.222 1.111,-2.141 2.367,-4.209 3.442,-6.367 1.261,-2.529 3.073,-3.603 5.876,-2.68 0.439,0.144 0.947,0.384 1.607,-0.149 -1.17,-2.704 -2.5,-5.392 -4.947,-7.235 -2.149,-1.62 -3.23,-3.266 -2.331,-6.137 0.671,-2.141 0.642,-4.522 -1.848,-5.903 -0.636,-0.353 -0.826,-0.895 -0.847,-1.655 -0.132,-4.885 -6.019,-10.258 -10.711,-9.879 -1.008,0.081 -1.902,0.219 -1.781,1.505 0.325,3.467 -1.535,6.378 -2.451,9.519 -0.395,1.354 -0.622,2.528 -0.048,3.84 0.876,2.002 0.699,3.848 -0.808,5.562 -1.071,1.218 -1.781,2.615 -1.22,4.351 0.332,1.028 -0.29,1.476 -1.159,1.852 -2.146,0.929 -4.331,1.171 -6.581,0.523 -3.317,-0.956 -5.639,-0.31 -7.855,2.832 -1.641,2.327 -1.767,4.087 -1.409,6.675 0.361,2.616 0.791,4.877 3.016,6.455 1.258,0.89 0.542,2.711 1.929,3.638 1.194,0.798 2.26,1.493 3.776,1.652 2.222,0.232 4.404,0.842 6.606,1.271 1.207,0.235 2.284,0.122 2.172,-1.483 -0.147,-2.1 1.649,-1.986 2.809,-2.567 1.074,-0.538 2.107,-1.718 3.247,0.217 0.533,0.905 1.885,0.22 2.783,-0.128 1.673,-0.646 3.354,-0.899 5.137,-0.689 1.562,0.183 2.101,1.135 2.174,2.548 0.084,1.642 -1.162,1.25 -2.078,1.386 -0.74,0.109 -1.487,0.206 -2.213,0.382 -0.798,0.195 -1.298,0.713 -1.376,1.571 -0.079,0.855 0.593,1.021 1.148,1.404 1.953,1.346 3.872,2.276 6.176,0.728 0.471,-0.316 1.193,-0.241 1.571,0.323 0.412,0.616 0.015,1.177 -0.458,1.505 -0.907,0.626 -1.326,1.625 -2.047,2.668 -0.785,-1.405 -1.343,-2.983 -2.868,-0.712 -0.812,1.211 -1.409,-0.136 -1.673,-0.807 -0.612,-1.554 -0.997,-3.145 -2.995,-3.626 -1.068,-0.258 -0.401,-1.239 -0.379,-1.924 0.024,-0.791 -0.117,-1.569 -0.991,-1.801 -0.851,-0.227 -1.106,0.536 -1.426,1.107 -1.116,1.987 -1.3,4.507 -3.408,5.926 -0.56,0.378 -1.069,1.477 -1.777,0.697 -0.633,-0.696 0.319,-1.321 0.818,-1.815 0.649,-0.642 1.467,-1.123 2.061,-1.805 0.561,-0.646 0.463,-1.455 -0.253,-1.975 -0.786,-0.571 -0.939,0.347 -1.283,0.703 -1.618,1.677 -2.779,3.693 -5.912,3.04 -2.081,-0.434 -3.184,-1.255 -3.65,-3.068 -0.455,-1.774 -1.563,-2.45 -3.25,-2.468 -1.336,-0.014 -2.821,0.236 -2.68,1.843 0.129,1.483 -0.698,3.657 2.062,4.095 2.992,0.475 3.046,0.686 1.815,3.362 -0.356,0.772 -0.088,1.027 0.461,1.369 0.775,0.482 1.572,0.949 2.036,1.79 l -0.04,-0.04 c 1.992,1.626 4.365,2.858 4.919,5.8 0.23,1.227 0.957,0.635 1.541,-0.024 2.302,-2.598 5.725,-2.111 7.202,1 0.441,0.929 1.086,1.67 1.928,2.24 0.748,0.505 1.516,0.981 2.279,1.473 -0.154,0.205 -0.234,0.417 -0.328,0.423 -4.394,0.299 -4.747,0.811 -3.413,4.969 0.226,0.706 0.589,1.389 0.362,2.17 L 0.098,0.07 0,0 Z"
             style="fill:#54e778;fill-opacity:1;fill-rule:nonzero;stroke:none"
             id="path9418"
             inkscape:connector-curvature="0" /></g><g
           id="g9420"
           transform="translate(1031.0244,561.5137)"><path
             d="m 0,0 c -1.53,0.271 -2.91,-0.368 -4.339,-0.713 -0.085,0.089 -0.172,0.176 -0.259,0.263 0.074,0.804 0.963,2.093 -0.976,1.722 -0.629,-0.12 -1.67,-0.558 -1.633,0.239 0.054,1.14 -1.181,2.626 0.277,3.415 1.37,0.741 1.941,1.437 1.448,3.021 -0.218,0.697 0.623,1.062 1.288,1.261 0.72,0.215 1.64,0.071 1.645,-0.613 C -2.526,5.456 0.28,3.162 -0.04,-0.04 L 0,0 Z"
             style="fill:#54e778;fill-opacity:1;fill-rule:nonzero;stroke:none"
             id="path9422"
             inkscape:connector-curvature="0" /></g><g
           id="g9424"
           transform="translate(1017.0039,581.5122)"><path
             d="m 0,0 c 1.021,-0.242 1.804,-0.062 2.563,0.329 0.717,0.37 1.431,0.52 1.908,-0.358 0.402,-0.745 0.851,-1.829 0.168,-2.287 -1.33,-0.892 -2.423,-2.527 -4.187,-2.371 -1.683,0.15 -2.465,1.976 -2.807,3.158 C -3.06,0.896 -0.84,-0.326 0,0"
             style="fill:#54e778;fill-opacity:1;fill-rule:nonzero;stroke:none"
             id="path9426"
             inkscape:connector-curvature="0" /></g><g
           id="g9428"
           transform="translate(1062.9531,513.647)"><path
             d="m 0,0 c -0.329,-2.189 -1.004,-4.394 -2.19,-6.42 -0.28,-0.476 -0.578,-1.112 -1.312,-0.859 -0.59,0.203 -0.892,0.755 -0.999,1.336 -0.363,1.964 0.317,3.701 1.289,5.348 0.289,0.49 0.709,0.902 1.011,1.386 0.338,0.544 0.48,1.394 1.344,1.185 C 0.081,1.75 -0.044,0.866 0,0"
             style="fill:#54e778;fill-opacity:1;fill-rule:nonzero;stroke:none"
             id="path9430"
             inkscape:connector-curvature="0" /></g><g
           id="g9432"
           transform="translate(1026.6855,560.8008)"><path
             d="M 0,0 C -0.267,-0.09 -0.477,-0.124 -0.259,0.263 -0.172,0.176 -0.085,0.089 0,0"
             style="fill:#54e778;fill-opacity:1;fill-rule:nonzero;stroke:none"
             id="path9434"
             inkscape:connector-curvature="0" /></g><g
           id="g9436"
           transform="translate(1045.5098,579.4849)"><path
             d="M 0,0 0.098,0.07 -0.035,0.04 C -0.035,0.041 0,0 0,0"
             style="fill:#1e93cf;fill-opacity:1;fill-rule:nonzero;stroke:none"
             id="path9438"
             inkscape:connector-curvature="0" /></g></g></g></g></svg>